<svg width="32" height="26" viewBox="0 0 32 26" fill="none" xmlns="http://www.w3.org/2000/svg">
<path d="M17.6667 19.6673H18.6667H17.6667ZM17.6667 6.33398H16.6667H17.6667ZM24.8215 5.15547L25.5286 4.44837L25.5286 4.44837L24.8215 5.15547ZM30.5118 10.8458L31.219 10.1387V10.1387L30.5118 10.8458ZM2.66667 2.33398H16V0.333984H2.66667V2.33398ZM16.6667 3.00065V19.6673H18.6667V3.00065H16.6667ZM2 19.6673V3.00065H0V19.6673H2ZM4.33333 20.334H2.66667V22.334H4.33333V20.334ZM16 20.334H11V22.334H16V20.334ZM0 19.6673C0 21.1401 1.19391 22.334 2.66667 22.334V20.334C2.29848 20.334 2 20.0355 2 19.6673H0ZM16.6667 19.6673C16.6667 20.0355 16.3682 20.334 16 20.334V22.334C17.4728 22.334 18.6667 21.1401 18.6667 19.6673H16.6667ZM16 2.33398C16.3682 2.33398 16.6667 2.63246 16.6667 3.00065H18.6667C18.6667 1.52789 17.4728 0.333984 16 0.333984V2.33398ZM2.66667 0.333984C1.19391 0.333984 0 1.52789 0 3.00065H2C2 2.63246 2.29848 2.33398 2.66667 2.33398V0.333984ZM18.6667 19.6673L18.6667 6.33398L16.6667 6.33398L16.6667 19.6673L18.6667 19.6673ZM19.3333 5.66732H23.643V3.66732H19.3333V5.66732ZM30 12.0243V19.6673H32V12.0243H30ZM24.1144 5.86258L29.8047 11.5529L31.219 10.1387L25.5286 4.44837L24.1144 5.86258ZM21 20.334H19.3333V22.334H21V20.334ZM29.3333 20.334H27.6667V22.334H29.3333V20.334ZM32 12.0243C32 11.3171 31.719 10.6388 31.219 10.1387L29.8047 11.5529C29.9298 11.678 30 11.8475 30 12.0243H32ZM23.643 5.66732C23.8198 5.66732 23.9894 5.73756 24.1144 5.86258L25.5286 4.44837C25.0285 3.94827 24.3502 3.66732 23.643 3.66732V5.66732ZM16.6667 19.6673C16.6667 21.1401 17.8606 22.334 19.3333 22.334V20.334C18.9651 20.334 18.6667 20.0355 18.6667 19.6673H16.6667ZM30 19.6673C30 20.0355 29.7015 20.334 29.3333 20.334V22.334C30.8061 22.334 32 21.1401 32 19.6673H30ZM18.6667 6.33398C18.6667 5.96579 18.9651 5.66732 19.3333 5.66732V3.66732C17.8606 3.66732 16.6667 4.86123 16.6667 6.33398H18.6667ZM10 21.334C10 22.6226 8.95533 23.6673 7.66667 23.6673V25.6673C10.0599 25.6673 12 23.7272 12 21.334H10ZM7.66667 23.6673C6.378 23.6673 5.33333 22.6226 5.33333 21.334H3.33333C3.33333 23.7272 5.27343 25.6673 7.66667 25.6673V23.6673ZM5.33333 21.334C5.33333 20.0453 6.378 19.0007 7.66667 19.0007V17.0007C5.27343 17.0007 3.33333 18.9408 3.33333 21.334H5.33333ZM7.66667 19.0007C8.95533 19.0007 10 20.0453 10 21.334H12C12 18.9408 10.0599 17.0007 7.66667 17.0007V19.0007ZM26.6667 21.334C26.6667 22.6226 25.622 23.6673 24.3333 23.6673V25.6673C26.7266 25.6673 28.6667 23.7272 28.6667 21.334H26.6667ZM24.3333 23.6673C23.0447 23.6673 22 22.6226 22 21.334H20C20 23.7272 21.9401 25.6673 24.3333 25.6673V23.6673ZM22 21.334C22 20.0453 23.0447 19.0007 24.3333 19.0007V17.0007C21.9401 17.0007 20 18.9408 20 21.334H22ZM24.3333 19.0007C25.622 19.0007 26.6667 20.0453 26.6667 21.334H28.6667C28.6667 18.9408 26.7266 17.0007 24.3333 17.0007V19.0007Z" fill="white"/>
</svg>
